# xmcd
#
# Track frame offsets:
#	150
#	17610
#	36422
#	50934
#	65444
#	80972
#	97927
#	114467
#	131354
#	150127
#	165568
#
# Disc length: 2430 seconds
#
# Revision: 1408319348
# Processed by: cddbd v1.5.2PL0 Copyright (c) Steve Scherf et al.
# Submitted via: EZCDAudioConverter 8.5.0.1
#
DISCID=87097c0b
DTITLE=Tresa Jordan
DYEAR=2007
DGENRE=Country
TTITLE0=Country High
TTITLE1=Angels Cry
TTITLE2=Underneath The Wheels
TTITLE3=Dancin' On Daddy's Feet
TTITLE4=Long Time Comin' Around
TTITLE5=I Turn To Country
TTITLE6=Ain't No Grave
TTITLE7=Sweetwater Road
TTITLE8=Hold On To You
TTITLE9=Beyond The Blue
TTITLE10=Danny's Song
EXTD=
EXTT0=
EXTT1=
EXTT2=
EXTT3=
EXTT4=
EXTT5=
EXTT6=
EXTT7=
EXTT8=
EXTT9=
EXTT10=
PLAYORDER=
